<?xml version="1.0" encoding="UTF-8"?>
<!DOCTYPE svg PUBLIC "-//W3C//DTD SVG 1.1//EN" "http://www.w3.org/Graphics/SVG/1.1/DTD/svg11.dtd">
<!-- Creator: CorelDRAW 2017 -->
<svg xmlns="http://www.w3.org/2000/svg" xml:space="preserve" width="8.5in" height="11in" version="1.1" style="shape-rendering:geometricPrecision; text-rendering:geometricPrecision; image-rendering:optimizeQuality; fill-rule:evenodd; clip-rule:evenodd"
viewBox="0 0 8500 11000"
 xmlns:xlink="http://www.w3.org/1999/xlink">
 <defs>
  <style type="text/css">
   <![CDATA[
    .fil0 {fill:black}
   ]]>
  </style>
   <clipPath id="id0">
    <rect x="681.7" y="1867.72" width="7251.89" height="7251.89"/>
   </clipPath>
 </defs>
 <g id="Layer_x0020_1">
  <metadata id="CorelCorpID_0Corel-Layer"/>
  <g id="_796356096">
   <path class="fil0" d="M3984.72 1950c-2.78,2.78 -50,8.33 -102.78,13.89 -100,9.72 -111.11,11.11 -250,36.11 -152.78,26.39 -165.28,29.17 -294.44,63.89 -834.72,222.22 -1559.72,741.67 -2048.61,1468.06 -247.22,366.67 -431.94,812.5 -523.61,1258.33 -51.39,248.61 -63.89,390.28 -62.5,723.61 0,248.61 9.72,409.72 27.78,506.94 2.78,15.28 12.5,68.06 20.83,118.06 23.61,140.28 91.67,395.83 147.22,548.61 365.28,1023.61 1168.06,1819.44 2194.44,2175 140.28,47.22 355.56,105.56 476.39,127.78 251.39,47.22 390.28,58.33 687.5,58.33 319.44,0 513.89,-19.44 770.83,-79.17 1351.39,-308.33 2401.39,-1361.11 2693.06,-2704.17 23.61,-104.17 45.83,-223.61 50,-265.28 5.56,-41.67 12.5,-91.67 15.28,-111.11 12.5,-68.06 16.67,-633.33 5.56,-729.17 -25,-201.39 -30.56,-237.5 -56.94,-366.67 -62.5,-306.94 -162.5,-593.06 -305.56,-881.94 -244.44,-488.89 -588.89,-905.56 -1033.33,-1245.83 -209.72,-161.11 -562.5,-362.5 -798.61,-456.94 -223.61,-90.28 -575,-190.28 -745.83,-213.89 -33.33,-4.17 -86.11,-12.5 -118.06,-16.67 -33.33,-4.17 -75,-11.11 -94.44,-15.28 -38.89,-6.94 -647.22,-19.44 -654.17,-12.5l-0 -0zm647.22 123.61c15.28,4.17 62.5,11.11 104.17,16.67 233.33,29.17 654.17,144.44 840.28,229.17 38.89,18.06 106.94,48.61 152.78,69.44 45.83,20.83 138.89,70.83 206.94,109.72 68.06,38.89 125,70.83 127.78,70.83 11.11,0 259.72,179.17 352.78,254.17 140.28,112.5 419.44,394.44 527.78,530.56 195.83,248.61 372.22,548.61 493.06,840.28 56.94,134.72 151.39,430.56 168.06,520.83 4.17,22.22 12.5,68.06 20.83,100 6.94,33.33 19.44,105.56 27.78,159.72 6.94,55.56 18.06,129.17 23.61,163.89 5.56,34.72 9.72,202.78 8.33,375 0,258.33 -5.56,345.83 -31.94,506.94 -86.11,530.56 -263.89,981.94 -559.72,1420.83 -245.83,365.28 -668.06,766.67 -1043.06,994.44 -347.22,209.72 -795.83,384.72 -1141.67,445.83 -22.22,2.78 -54.17,9.72 -69.44,12.5 -16.67,2.78 -66.67,9.72 -111.11,15.28 -45.83,5.56 -95.83,13.89 -111.11,16.67 -54.17,12.5 -586.11,13.89 -701.39,2.78 -813.89,-87.5 -1504.17,-412.5 -2083.33,-980.56 -393.06,-386.11 -680.56,-845.83 -854.17,-1370.83 -59.72,-180.56 -83.33,-270.83 -116.67,-466.67 -15.28,-87.5 -31.94,-181.94 -36.11,-208.33 -19.44,-104.17 -18.06,-631.94 1.39,-791.67 79.17,-661.11 330.56,-1261.11 738.89,-1768.06 118.06,-147.22 380.56,-411.11 530.56,-530.56 509.72,-409.72 1179.17,-684.72 1805.56,-738.89 50,-4.17 93.06,-9.72 94.44,-12.5 8.33,-5.56 604.17,5.56 634.72,12.5l-0.02 -0z"/>
   <path class="fil0" d="M4225 2193.06c-13.89,37.5 -20.83,43.06 -68.06,43.06l-52.78 0 40.28 31.94c34.72,27.78 38.89,37.5 29.17,77.78l-9.72 45.83 40.28 -23.61c38.89,-23.61 43.06,-23.61 77.78,0 40.28,25 48.61,12.5 23.61,-34.72 -11.11,-20.83 -5.56,-31.94 31.94,-61.11l44.44 -36.11 -58.33 0c-47.22,0 -59.72,-5.56 -59.72,-25 0,-12.5 -5.56,-31.94 -12.5,-41.67 -8.33,-13.89 -15.28,-8.33 -26.39,23.61l-0 -0.01z"/>
   <path class="fil0" d="M4012.5 2519.44c-2.78,2.78 -51.39,9.72 -106.94,13.89 -55.56,5.56 -108.33,12.5 -118.06,15.28 -8.33,2.78 -41.67,9.72 -72.22,13.89 -334.72,48.61 -794.44,233.33 -1115.28,450 -268.06,180.56 -523.61,416.67 -700,647.22 -51.39,68.06 -100,130.56 -105.56,138.89 -23.61,30.56 -166.67,269.44 -206.94,347.22 -151.39,291.67 -265.28,670.83 -305.56,1020.83 -20.83,177.78 -9.72,748.61 15.28,790.28 2.78,4.17 9.72,37.5 13.89,73.61 11.11,79.17 68.06,306.94 105.56,413.89 252.78,743.06 761.11,1337.5 1458.33,1705.56 197.22,104.17 525,226.39 695.83,259.72 18.06,4.17 68.06,13.89 109.72,22.22 200,38.89 363.89,51.39 618.06,47.22 145.83,-2.78 287.5,-8.33 316.67,-12.5 918.06,-125 1700,-630.56 2183.33,-1411.11 168.06,-273.61 312.5,-631.94 369.44,-916.67 6.94,-41.67 16.67,-88.89 19.44,-104.17 29.17,-150 37.5,-247.22 41.67,-486.11 2.78,-152.78 0,-309.72 -6.94,-347.22 -5.56,-38.89 -15.28,-102.78 -19.44,-144.44 -13.89,-115.28 -62.5,-329.17 -105.56,-459.72 -155.56,-475 -394.44,-865.28 -743.06,-1212.5 -463.89,-463.89 -1059.72,-755.56 -1729.17,-850 -69.44,-9.72 -604.17,-23.61 -612.5,-15.28l-0 -0zm584.72 127.78c175,22.22 193.06,25 362.5,68.06 386.11,98.61 762.5,284.72 1075,531.94 100,77.78 347.22,322.22 441.67,433.33 101.39,119.44 269.44,384.72 354.17,556.94 76.39,154.17 186.11,447.22 201.39,540.28 4.17,19.44 13.89,59.72 20.83,90.28 50,186.11 70.83,404.17 65.28,687.5 -2.78,141.67 -8.33,272.22 -12.5,291.67 -5.56,19.44 -11.11,59.72 -15.28,90.28 -5.56,48.61 -11.11,79.17 -40.28,208.33 -80.56,370.83 -262.5,761.11 -512.5,1095.83 -47.22,61.11 -159.72,188.89 -252.78,280.56 -298.61,302.78 -566.67,477.78 -1013.89,665.28 -120.83,51.39 -444.44,136.11 -583.33,154.17 -30.56,4.17 -70.83,11.11 -90.28,15.28 -65.28,12.5 -534.72,16.67 -631.94,4.17 -223.61,-27.78 -248.61,-31.94 -423.61,-76.39 -1262.5,-316.67 -2162.5,-1469.44 -2163.89,-2770.83 0,-358.33 45.83,-637.5 159.72,-965.28 200,-575 600,-1091.67 1108.33,-1430.56 181.94,-120.83 370.83,-222.22 541.67,-288.89 118.06,-47.22 331.94,-113.89 404.17,-126.39 18.06,-4.17 44.44,-9.72 58.33,-13.89 184.72,-55.56 659.72,-76.39 947.22,-41.67l0.01 -0z"/>
   <path class="fil0" d="M3002.78 3723.61c-22.22,8.33 -23.61,123.61 -20.83,1687.5 0,923.61 1.39,1687.5 2.78,1695.83 1.39,13.89 79.17,18.06 338.89,18.06l337.5 0 -1.39 -340.28 0 -340.28 173.61 -1.39c463.89,-2.78 583.33,-2.78 588.89,2.78 2.78,2.78 69.44,152.78 147.22,331.94 76.39,179.17 144.44,330.56 151.39,337.5 5.56,5.56 170.83,8.33 365.28,6.94l355.56 -4.17 -177.78 -419.44c-97.22,-230.56 -181.94,-430.56 -186.11,-444.44 -5.56,-18.06 11.11,-37.5 63.89,-73.61 87.5,-58.33 251.39,-222.22 301.39,-298.61 19.44,-30.56 40.28,-58.33 44.44,-62.5 29.17,-22.22 143.06,-294.44 173.61,-411.11 44.44,-168.06 51.39,-434.72 15.28,-597.22 -55.56,-245.83 -177.78,-480.56 -345.83,-658.33 -48.61,-52.78 -194.44,-176.39 -240.28,-204.17 -125,-77.78 -212.5,-119.44 -319.44,-155.56 -216.67,-72.22 -198.61,-70.83 -1170.83,-75 -315.28,-1.39 -584.72,1.39 -597.22,5.56l0 -0zm1541.67 712.5c562.5,188.89 644.44,937.5 134.72,1237.5 -138.89,80.56 -219.44,91.67 -644.44,87.5l-373.61 -4.17 -1.39 -666.67c0,-366.67 1.39,-670.83 4.17,-677.78 2.78,-5.56 180.56,-9.72 395.83,-9.72 368.06,1.39 397.22,2.78 484.72,33.33l0 -0z"/>
   <path class="fil0" d="M1794.44 3316.67c-13.89,43.06 -43.06,54.17 -106.94,45.83 -6.94,-1.39 5.56,15.28 30.56,36.11 43.06,37.5 44.44,40.28 25,84.72l-19.44 45.83 38.89 -29.17c50,-34.72 50,-34.72 101.39,2.78 41.67,29.17 41.67,29.17 26.39,0 -25,-47.22 -18.06,-81.94 23.61,-112.5 20.83,-16.67 27.78,-29.17 16.67,-27.78 -63.89,5.56 -83.33,-2.78 -101.39,-45.83l-18.06 -45.83 -16.67 45.83z"/>
   <path class="fil0" d="M6711.11 3319.44c-16.67,47.22 -19.44,50 -69.44,44.44l-51.39 -5.56 33.33 29.17c18.06,15.28 38.89,29.17 44.44,29.17 6.94,0 2.78,25 -8.33,55.56l-19.44 56.94 38.89 -29.17c50,-34.72 50,-34.72 100,0l38.89 29.17 -19.44 -48.61c-20.83,-47.22 -19.44,-48.61 25,-84.72 23.61,-19.44 34.72,-34.72 23.61,-33.33 -62.5,6.94 -83.33,-2.78 -101.39,-47.22l-19.44 -44.44 -15.28 48.61 0 0z"/>
   <path class="fil0" d="M1030.56 5261.11c-15.28,44.44 -20.83,47.22 -83.33,48.61 -23.61,0 -27.78,4.17 -15.28,18.06 8.33,9.72 26.39,22.22 40.28,26.39 20.83,6.94 23.61,15.28 12.5,51.39 -15.28,54.17 -6.94,63.89 26.39,34.72 13.89,-13.89 30.56,-23.61 37.5,-23.61 6.94,0 23.61,9.72 37.5,23.61 33.33,29.17 47.22,13.89 27.78,-30.56 -13.89,-29.17 -11.11,-37.5 18.06,-61.11 37.5,-29.17 44.44,-45.83 18.06,-41.67 -48.61,5.56 -68.06,-5.56 -84.72,-45.83l-18.06 -45.83 -16.67 45.83 -0 0z"/>
   <path class="fil0" d="M7433.33 5261.11c-13.89,38.89 -20.83,44.44 -68.06,44.44l-52.78 0 44.44 34.72c44.44,34.72 44.44,36.11 22.22,86.11l-20.83 51.39 33.33 -23.61c55.56,-40.28 68.06,-41.67 108.33,-11.11l40.28 29.17 -19.44 -54.17c-18.06,-51.39 -16.67,-54.17 15.28,-69.44 45.83,-20.83 41.67,-43.06 -8.33,-43.06 -33.33,0 -44.44,-8.33 -59.72,-44.44l-18.06 -45.83 -16.67 45.83 -0 0z"/>
   <path class="fil0" d="M1794.44 7497.22c-13.89,43.06 -45.83,55.56 -106.94,45.83 -6.94,-1.39 4.17,12.5 26.39,30.56 34.72,27.78 38.89,37.5 29.17,77.78l-9.72 45.83 41.67 -23.61c40.28,-23.61 43.06,-23.61 83.33,5.56l41.67 29.17 -15.28 -50c-13.89,-47.22 -12.5,-52.78 25,-84.72l41.67 -33.33 -48.61 4.17c-43.06,4.17 -51.39,-1.39 -70.83,-44.44l-22.22 -47.22 -15.28 44.44 0 -0z"/>
   <path class="fil0" d="M6711.11 7497.22c-13.89,41.67 -33.33,51.39 -81.94,45.83 -29.17,-4.17 -19.44,22.22 16.67,45.83 30.56,19.44 31.94,26.39 18.06,56.94 -20.83,45.83 -4.17,59.72 30.56,27.78 27.78,-25 30.56,-25 70.83,-1.39l43.06 25 -9.72 -45.83c-9.72,-40.28 -5.56,-50 29.17,-77.78l40.28 -31.94 -51.39 0c-45.83,0 -55.56,-5.56 -70.83,-44.44l-18.06 -45.83 -16.67 45.83z"/>
   <path class="fil0" d="M4225 8636.11c-13.89,38.89 -20.83,44.44 -65.28,44.44l-50 0 38.89 33.33c34.72,30.56 36.11,36.11 22.22,83.33l-15.28 50 38.89 -27.78c48.61,-34.72 48.61,-34.72 100,1.39l40.28 29.17 -20.83 -50c-20.83,-48.61 -20.83,-50 23.61,-84.72l44.44 -34.72 -51.39 0c-45.83,0 -55.56,-5.56 -70.83,-44.44l-18.06 -45.83 -16.67 45.83 0 -0z"/>
  </g>
  <g style="clip-path:url(#id0)">
   <image id="android-chrome-512x512.png" x="681.7" y="1867.72" width="7251.89" height="7251.89" xlink:href="0704-safari-pinned-tab-dc83f4a3-ae9f-47d8-93e0-6a51b852ded8_Images\0704-safari-pinned-tab-dc83f4a3-ae9f-47d8-93e0-6a51b852ded8_ImgID1.png"/>
  </g>
 </g>
</svg>
